<?xml version="1.0" encoding="UTF-8" standalone="no"?>
<svg
   viewBox="0 0 30 30"
   version="1.1"
   id="svg19"
   sodipodi:docname="arrow.svg"
   inkscape:version="1.1 (c68e22c387, 2021-05-23)"
   xmlns:inkscape="http://www.inkscape.org/namespaces/inkscape"
   xmlns:sodipodi="http://sodipodi.sourceforge.net/DTD/sodipodi-0.dtd"
   xmlns="http://www.w3.org/2000/svg"
   xmlns:svg="http://www.w3.org/2000/svg">
  <defs
     id="defs23" />
  <sodipodi:namedview
     id="namedview21"
     pagecolor="#ffffff"
     bordercolor="#111111"
     borderopacity="1"
     inkscape:pageshadow="0"
     inkscape:pageopacity="0"
     inkscape:pagecheckerboard="1"
     showgrid="false"
     inkscape:zoom="16.366667"
     inkscape:cx="15"
     inkscape:cy="15"
     inkscape:window-width="1284"
     inkscape:window-height="1081"
     inkscape:window-x="1449"
     inkscape:window-y="549"
     inkscape:window-maximized="0"
     inkscape:current-layer="svg19" />
  <path
     d="M 15,27 C 21.627,27 27,21.627 27,15 27,8.373 21.627,3 15,3 8.373,3 3,8.373 3,15 3,21.627 8.373,27 15,27 Z m 0,-2 C 9.477,25 5,20.523 5,15 5,9.477 9.477,5 15,5 c 5.523,0 10,4.477 10,10 0,5.523 -4.477,10 -10,10 z m 1,-5 c 0.256,0 0.512031,-0.09797 0.707031,-0.292969 l 4,-4 c 0.391,-0.391 0.391,-1.023062 0,-1.414062 l -4,-4 c -0.391,-0.391 -1.023062,-0.391 -1.414062,0 -0.391,0.391 -0.391,1.023062 0,1.414062 L 17.585938,14 H 10 c -0.552,0 -1,0.447 -1,1 0,0.553 0.448,1 1,1 h 7.585938 l -2.292969,2.292969 c -0.391,0.391 -0.391,1.023062 0,1.414062 C 15.487969,19.902031 15.744,20 16,20 Z"
     id="path17" />
</svg>
